<mxfile host="Electron" agent="Mozilla/5.0 (X11; Linux x86_64) AppleWebKit/537.36 (KHTML, like Gecko) draw.io/26.1.1 Chrome/132.0.6834.210 Electron/34.3.3 Safari/537.36" version="26.1.1">
  <diagram name="Page-1" id="YSWj-yMNKOiOtg1tX0aj">
    <mxGraphModel dx="1687" dy="982" grid="1" gridSize="10" guides="1" tooltips="1" connect="1" arrows="1" fold="1" page="1" pageScale="1" pageWidth="850" pageHeight="1100" math="0" shadow="0">
      <root>
        <mxCell id="0" />
        <mxCell id="1" parent="0" />
        <mxCell id="kHm1TzqVJnTORGBLQNCM-5" style="rounded=0;orthogonalLoop=1;jettySize=auto;html=1;exitX=1;exitY=0.5;exitDx=0;exitDy=0;entryX=0;entryY=0.5;entryDx=0;entryDy=0;" parent="1" source="kHm1TzqVJnTORGBLQNCM-1" target="kHm1TzqVJnTORGBLQNCM-4" edge="1">
          <mxGeometry relative="1" as="geometry">
            <mxPoint x="280" y="290" as="targetPoint" />
          </mxGeometry>
        </mxCell>
        <mxCell id="kHm1TzqVJnTORGBLQNCM-1" value="Initial Commit" style="rounded=0;whiteSpace=wrap;html=1;" parent="1" vertex="1">
          <mxGeometry x="100" y="330" width="120" height="60" as="geometry" />
        </mxCell>
        <mxCell id="kHm1TzqVJnTORGBLQNCM-12" style="edgeStyle=none;rounded=0;orthogonalLoop=1;jettySize=auto;html=1;entryX=0;entryY=0.5;entryDx=0;entryDy=0;" parent="1" source="kHm1TzqVJnTORGBLQNCM-4" target="kHm1TzqVJnTORGBLQNCM-10" edge="1">
          <mxGeometry relative="1" as="geometry" />
        </mxCell>
        <mxCell id="kHm1TzqVJnTORGBLQNCM-4" value="Commit 1" style="rounded=0;whiteSpace=wrap;html=1;" parent="1" vertex="1">
          <mxGeometry x="260" y="330" width="120" height="60" as="geometry" />
        </mxCell>
        <mxCell id="kHm1TzqVJnTORGBLQNCM-13" style="edgeStyle=none;rounded=0;orthogonalLoop=1;jettySize=auto;html=1;entryX=0;entryY=0.5;entryDx=0;entryDy=0;" parent="1" source="kHm1TzqVJnTORGBLQNCM-10" target="kHm1TzqVJnTORGBLQNCM-11" edge="1">
          <mxGeometry relative="1" as="geometry" />
        </mxCell>
        <mxCell id="kHm1TzqVJnTORGBLQNCM-10" value="Commit 2" style="rounded=0;whiteSpace=wrap;html=1;" parent="1" vertex="1">
          <mxGeometry x="420" y="330" width="120" height="60" as="geometry" />
        </mxCell>
        <mxCell id="kHm1TzqVJnTORGBLQNCM-11" value="Commit 3" style="rounded=0;whiteSpace=wrap;html=1;" parent="1" vertex="1">
          <mxGeometry x="580" y="330" width="120" height="60" as="geometry" />
        </mxCell>
        <mxCell id="kHm1TzqVJnTORGBLQNCM-14" value="Remote server" style="rounded=0;whiteSpace=wrap;html=1;" parent="1" vertex="1">
          <mxGeometry x="330" y="1520" width="120" height="60" as="geometry" />
        </mxCell>
        <mxCell id="kHm1TzqVJnTORGBLQNCM-15" value="Person 2" style="rounded=0;whiteSpace=wrap;html=1;" parent="1" vertex="1">
          <mxGeometry x="330" y="1700" width="120" height="60" as="geometry" />
        </mxCell>
        <mxCell id="C7E58GQU99KbfUiz1UsX-1" value="Person 1" style="rounded=0;whiteSpace=wrap;html=1;" parent="1" vertex="1">
          <mxGeometry x="170" y="1700" width="120" height="60" as="geometry" />
        </mxCell>
        <mxCell id="C7E58GQU99KbfUiz1UsX-2" value="" style="endArrow=classic;startArrow=classic;html=1;rounded=0;entryX=0.5;entryY=1;entryDx=0;entryDy=0;exitX=0.5;exitY=0;exitDx=0;exitDy=0;" parent="1" source="kHm1TzqVJnTORGBLQNCM-15" target="kHm1TzqVJnTORGBLQNCM-14" edge="1">
          <mxGeometry width="50" height="50" relative="1" as="geometry">
            <mxPoint x="330" y="1670" as="sourcePoint" />
            <mxPoint x="380" y="1620" as="targetPoint" />
          </mxGeometry>
        </mxCell>
        <mxCell id="C7E58GQU99KbfUiz1UsX-3" value="" style="endArrow=classic;startArrow=classic;html=1;rounded=0;entryX=0.25;entryY=1;entryDx=0;entryDy=0;exitX=0.5;exitY=0;exitDx=0;exitDy=0;" parent="1" source="C7E58GQU99KbfUiz1UsX-1" target="kHm1TzqVJnTORGBLQNCM-14" edge="1">
          <mxGeometry width="50" height="50" relative="1" as="geometry">
            <mxPoint x="400" y="1710" as="sourcePoint" />
            <mxPoint x="400" y="1590" as="targetPoint" />
          </mxGeometry>
        </mxCell>
        <mxCell id="C7E58GQU99KbfUiz1UsX-4" value="" style="endArrow=classic;startArrow=classic;html=1;rounded=0;entryX=0.75;entryY=1;entryDx=0;entryDy=0;exitX=0.5;exitY=0;exitDx=0;exitDy=0;" parent="1" source="C7E58GQU99KbfUiz1UsX-5" target="kHm1TzqVJnTORGBLQNCM-14" edge="1">
          <mxGeometry width="50" height="50" relative="1" as="geometry">
            <mxPoint x="570" y="1660" as="sourcePoint" />
            <mxPoint x="400" y="1590" as="targetPoint" />
          </mxGeometry>
        </mxCell>
        <mxCell id="C7E58GQU99KbfUiz1UsX-5" value="Person 3" style="rounded=0;whiteSpace=wrap;html=1;" parent="1" vertex="1">
          <mxGeometry x="490" y="1700" width="120" height="60" as="geometry" />
        </mxCell>
        <mxCell id="Fp1jmSdPSLpEjLVOa8Jk-2" value="Remote server" style="rounded=0;whiteSpace=wrap;html=1;" vertex="1" parent="1">
          <mxGeometry x="230" y="2290" width="120" height="60" as="geometry" />
        </mxCell>
        <mxCell id="Fp1jmSdPSLpEjLVOa8Jk-3" value="Person 1" style="rounded=0;whiteSpace=wrap;html=1;" vertex="1" parent="1">
          <mxGeometry x="230" y="2470" width="120" height="60" as="geometry" />
        </mxCell>
        <mxCell id="Fp1jmSdPSLpEjLVOa8Jk-5" value="" style="endArrow=classic;startArrow=classic;html=1;rounded=0;entryX=0.5;entryY=1;entryDx=0;entryDy=0;exitX=0.5;exitY=0;exitDx=0;exitDy=0;" edge="1" parent="1" source="Fp1jmSdPSLpEjLVOa8Jk-3" target="Fp1jmSdPSLpEjLVOa8Jk-2">
          <mxGeometry width="50" height="50" relative="1" as="geometry">
            <mxPoint x="230" y="2440" as="sourcePoint" />
            <mxPoint x="280" y="2390" as="targetPoint" />
          </mxGeometry>
        </mxCell>
        <mxCell id="Fp1jmSdPSLpEjLVOa8Jk-7" value="" style="endArrow=classic;startArrow=classic;html=1;rounded=0;entryX=0.75;entryY=1;entryDx=0;entryDy=0;exitX=0.5;exitY=0;exitDx=0;exitDy=0;" edge="1" parent="1" source="Fp1jmSdPSLpEjLVOa8Jk-8" target="Fp1jmSdPSLpEjLVOa8Jk-2">
          <mxGeometry width="50" height="50" relative="1" as="geometry">
            <mxPoint x="470" y="2430" as="sourcePoint" />
            <mxPoint x="300" y="2360" as="targetPoint" />
          </mxGeometry>
        </mxCell>
        <mxCell id="Fp1jmSdPSLpEjLVOa8Jk-8" value="Person 2" style="rounded=0;whiteSpace=wrap;html=1;" vertex="1" parent="1">
          <mxGeometry x="390" y="2470" width="120" height="60" as="geometry" />
        </mxCell>
        <mxCell id="Fp1jmSdPSLpEjLVOa8Jk-10" value="Person 4" style="rounded=0;whiteSpace=wrap;html=1;" vertex="1" parent="1">
          <mxGeometry x="230" y="2620" width="120" height="60" as="geometry" />
        </mxCell>
        <mxCell id="Fp1jmSdPSLpEjLVOa8Jk-11" value="Person 3" style="rounded=0;whiteSpace=wrap;html=1;" vertex="1" parent="1">
          <mxGeometry x="70" y="2620" width="120" height="60" as="geometry" />
        </mxCell>
        <mxCell id="Fp1jmSdPSLpEjLVOa8Jk-12" value="" style="endArrow=classic;startArrow=classic;html=1;rounded=0;entryX=0.5;entryY=1;entryDx=0;entryDy=0;exitX=0.5;exitY=0;exitDx=0;exitDy=0;" edge="1" parent="1" source="Fp1jmSdPSLpEjLVOa8Jk-10" target="Fp1jmSdPSLpEjLVOa8Jk-3">
          <mxGeometry width="50" height="50" relative="1" as="geometry">
            <mxPoint x="210" y="2690" as="sourcePoint" />
            <mxPoint x="270" y="2600" as="targetPoint" />
          </mxGeometry>
        </mxCell>
        <mxCell id="Fp1jmSdPSLpEjLVOa8Jk-13" value="" style="endArrow=classic;startArrow=classic;html=1;rounded=0;entryX=0.25;entryY=1;entryDx=0;entryDy=0;exitX=0.5;exitY=0;exitDx=0;exitDy=0;" edge="1" parent="1" source="Fp1jmSdPSLpEjLVOa8Jk-11" target="Fp1jmSdPSLpEjLVOa8Jk-3">
          <mxGeometry width="50" height="50" relative="1" as="geometry">
            <mxPoint x="280" y="2730" as="sourcePoint" />
            <mxPoint x="240" y="2600" as="targetPoint" />
          </mxGeometry>
        </mxCell>
        <mxCell id="Fp1jmSdPSLpEjLVOa8Jk-14" value="" style="endArrow=classic;startArrow=classic;html=1;rounded=0;entryX=0.75;entryY=1;entryDx=0;entryDy=0;exitX=0.5;exitY=0;exitDx=0;exitDy=0;" edge="1" parent="1" source="Fp1jmSdPSLpEjLVOa8Jk-15" target="Fp1jmSdPSLpEjLVOa8Jk-3">
          <mxGeometry width="50" height="50" relative="1" as="geometry">
            <mxPoint x="450" y="2680" as="sourcePoint" />
            <mxPoint x="300" y="2600" as="targetPoint" />
          </mxGeometry>
        </mxCell>
        <mxCell id="Fp1jmSdPSLpEjLVOa8Jk-15" value="Person 5" style="rounded=0;whiteSpace=wrap;html=1;" vertex="1" parent="1">
          <mxGeometry x="390" y="2620" width="120" height="60" as="geometry" />
        </mxCell>
        <mxCell id="Fp1jmSdPSLpEjLVOa8Jk-16" value="Person 6" style="rounded=0;whiteSpace=wrap;html=1;" vertex="1" parent="1">
          <mxGeometry x="550" y="2620" width="120" height="60" as="geometry" />
        </mxCell>
        <mxCell id="Fp1jmSdPSLpEjLVOa8Jk-17" value="" style="endArrow=classic;startArrow=classic;html=1;rounded=0;entryX=0.5;entryY=1;entryDx=0;entryDy=0;exitX=0.5;exitY=0;exitDx=0;exitDy=0;" edge="1" parent="1" source="Fp1jmSdPSLpEjLVOa8Jk-16" target="Fp1jmSdPSLpEjLVOa8Jk-8">
          <mxGeometry width="50" height="50" relative="1" as="geometry">
            <mxPoint x="530" y="2690" as="sourcePoint" />
            <mxPoint x="610" y="2530" as="targetPoint" />
          </mxGeometry>
        </mxCell>
        <mxCell id="Fp1jmSdPSLpEjLVOa8Jk-18" value="" style="endArrow=classic;startArrow=classic;html=1;rounded=0;entryX=0.75;entryY=1;entryDx=0;entryDy=0;exitX=0.5;exitY=0;exitDx=0;exitDy=0;" edge="1" parent="1" source="Fp1jmSdPSLpEjLVOa8Jk-19" target="Fp1jmSdPSLpEjLVOa8Jk-8">
          <mxGeometry width="50" height="50" relative="1" as="geometry">
            <mxPoint x="770" y="2680" as="sourcePoint" />
            <mxPoint x="640" y="2530" as="targetPoint" />
          </mxGeometry>
        </mxCell>
        <mxCell id="Fp1jmSdPSLpEjLVOa8Jk-19" value="Person 7" style="rounded=0;whiteSpace=wrap;html=1;" vertex="1" parent="1">
          <mxGeometry x="710" y="2620" width="120" height="60" as="geometry" />
        </mxCell>
        <mxCell id="Fp1jmSdPSLpEjLVOa8Jk-20" value="Person 9" style="rounded=0;whiteSpace=wrap;html=1;" vertex="1" parent="1">
          <mxGeometry x="230" y="2790" width="120" height="60" as="geometry" />
        </mxCell>
        <mxCell id="Fp1jmSdPSLpEjLVOa8Jk-21" value="Person 8" style="rounded=0;whiteSpace=wrap;html=1;" vertex="1" parent="1">
          <mxGeometry x="70" y="2790" width="120" height="60" as="geometry" />
        </mxCell>
        <mxCell id="Fp1jmSdPSLpEjLVOa8Jk-22" value="" style="endArrow=classic;startArrow=classic;html=1;rounded=0;entryX=0.5;entryY=1;entryDx=0;entryDy=0;exitX=0.5;exitY=0;exitDx=0;exitDy=0;" edge="1" parent="1" source="Fp1jmSdPSLpEjLVOa8Jk-20" target="Fp1jmSdPSLpEjLVOa8Jk-10">
          <mxGeometry width="50" height="50" relative="1" as="geometry">
            <mxPoint x="210" y="2890" as="sourcePoint" />
            <mxPoint x="290" y="2730" as="targetPoint" />
          </mxGeometry>
        </mxCell>
        <mxCell id="Fp1jmSdPSLpEjLVOa8Jk-23" value="" style="endArrow=classic;startArrow=classic;html=1;rounded=0;entryX=0.25;entryY=1;entryDx=0;entryDy=0;exitX=0.5;exitY=0;exitDx=0;exitDy=0;" edge="1" parent="1" source="Fp1jmSdPSLpEjLVOa8Jk-21" target="Fp1jmSdPSLpEjLVOa8Jk-10">
          <mxGeometry width="50" height="50" relative="1" as="geometry">
            <mxPoint x="280" y="2930" as="sourcePoint" />
            <mxPoint x="260" y="2730" as="targetPoint" />
          </mxGeometry>
        </mxCell>
        <mxCell id="Fp1jmSdPSLpEjLVOa8Jk-24" value="" style="endArrow=classic;startArrow=classic;html=1;rounded=0;entryX=0.75;entryY=1;entryDx=0;entryDy=0;exitX=0.5;exitY=0;exitDx=0;exitDy=0;" edge="1" parent="1" source="Fp1jmSdPSLpEjLVOa8Jk-25" target="Fp1jmSdPSLpEjLVOa8Jk-10">
          <mxGeometry width="50" height="50" relative="1" as="geometry">
            <mxPoint x="470" y="2740" as="sourcePoint" />
            <mxPoint x="330" y="2690" as="targetPoint" />
          </mxGeometry>
        </mxCell>
        <mxCell id="Fp1jmSdPSLpEjLVOa8Jk-25" value="Person 10" style="rounded=0;whiteSpace=wrap;html=1;" vertex="1" parent="1">
          <mxGeometry x="390" y="2790" width="120" height="60" as="geometry" />
        </mxCell>
      </root>
    </mxGraphModel>
  </diagram>
</mxfile>
